PathFileType	4	(X/Y/Z)	C:/Users/beibeiliu/ov580/test_trc/User2\sequence.38_training_dense_left.trc
DataRate	CameraRate	NumFrames	NumMarkers	Units	OrigDataRate	OrigDataStartFrame	OrigNumFrames
120	120	16	19	mm	120	63	94
Frame#	Time	ThumbCMC			ThumbMCP			ThumbIP			ThumbTip			IndexMCP			IndexPIP			IndexTip			MiddleMCP			MiddlePIP			MiddleTip			RingMCP			RingPIP			RingTip			PinkyMCP			PinkyPIP			PinkyTip			BackHand1			BackHand2			BackHand3	
		X0	Y0	Z0	X1	Y1	Z1	X2	Y2	Z2	X3	Y3	Z3	X4	Y4	Z4	X5	Y5	Z5	X6	Y6	Z6	X7	Y7	Z7	X8	Y8	Z8	X9	Y9	Z9	X10	Y10	Z10	X11	Y11	Z11	X12	Y12	Z12	X13	Y13	Z13	X14	Y14	Z14	X15	Y15	Z15	X16	Y16	Z16	X17	Y17	Z17	X18	Y18	Z18	
62	0.516667	-175.662	68.1917	49.2419	-160.912	63.0065	15.9411	-155.874	54.6773	-13.9918	-155.515	47.1328	-41.8075	-189.308	61.0305	-32.3262	-175.172	32.7364	-33.6433	-176.115	28.2644	5.26112	-204.587	44.0683	-30.5621	-184.357	15.8602	-16.1113	-190.135	27.7654	20.9987	-217.435	22.7934	-21.5836	-196.646	6.11049	-6.02602	-201.93	24.9616	27.9664	-245.027	28.6778	-21.477	-236.979	15.5968	-43.7026	-230.872	7.37014	-66.8685	-244.401	63.5648	25.827	-243.233	64.4733	57.5174	-214.953	82.85	40.6706	
63	0.525	-193.775	83.5575	41.9392	-171.14	83.4588	15.7568	-156.027	74.799	-13.2572	-144.512	64.6333	-35.8119	-182.072	59.6052	-33.8566	-155.331	41.9662	-24.0416	-163.752	46.0095	11.3824	-185.148	34.0453	-29.6484	-159.689	25.0846	-8.40192	-177.318	41.9314	24.3983	-190.637	15.499	-17.0181	-167.016	13.953	7.18094	-187.024	29.4391	32.4744	-214.187	5.42625	-19.3205	-196.232	-7.48521	-35.6385	-181.897	-10.6971	-56.5576	-240.704	40.0231	13.5185	-253.672	42.6828	46.5299	-231.964	75.2413	24.3534	
64	0.533333	-217.142	83.4059	30.1087	-192.843	95.3816	10.1228	-168.894	92.356	-22.0665	-151.745	87.9192	-35.037	-176.79	61.7005	-36.0834	-148.83	64.1438	-18.2317	-162.123	68.858	11.7445	-170.196	42.6379	-27.8238	-147.347	49.1866	1.6225	-176.636	56.2884	27.9752	-163.361	22.1437	-10.6086	-149.574	36.0169	14.7643	-181.242	44.8071	33.1463	-180.114	2.86046	-13.9952	-158.007	-1.03738	-27.1707	-142.758	-6.22018	-42.2699	-227.345	18.52	8.86277	-244.354	22.7811	38.1674	-238.707	56.4257	14.3702	
65	0.541667	-234.657	74.936	21.1645	-215.351	91.3398	-4.05988	-194.157	100.894	-24.4995	-175.851	105.852	-42.5041	-184.692	68.4446	-38.2576	-159.218	86.6538	-20.4406	-176.136	87.3627	12.6015	-165.854	57.649	-26.998	-150.452	76.2224	1.68383	-177.165	72.6335	28.743	-154.561	48.3251	-9.3418	-150.612	67.196	15.6609	-180.727	58.4827	32.2766	-154.568	19.0147	-9.20324	-132.745	22.043	-17.7417	-119.91	26.7999	-37.289	-208.221	12.2401	11.9552	-226.996	6.07463	34.5861	-237.207	34.8936	9.5021	
66	0.55	-242.358	63.3677	15.9685	-231.594	82.2796	-8.98815	-211.213	93.2956	-36.045	-198.019	104.354	-54.4656	-192.186	65.7421	-42.8917	-173.977	93.8139	-30.5072	-188.533	94.9712	3.58049	-167.833	61.0526	-31.0965	-161.3	90.1042	-12.9426	-186.485	82.2904	22.0774	-154.323	57.0501	-14.5572	-153.116	80.2983	7.07806	-181.433	68.8556	24.5031	-149.029	26.4855	-5.88859	-131.052	38.296	-21.6939	-113.119	41.2961	-37.5383	-197.245	9.92283	13.0125	-212.104	3.75188	38.2404	-232.139	22.6541	9.41103	
67	0.558333	-247.5	48.2938	13.276	-239.111	64.5969	-13.2272	-226.458	74.1171	-46.6434	-212.252	80.7882	-66.1502	-199.863	47.775	-48.4565	-188.5	79.0432	-44.9067	-198.264	87.7934	-11.0712	-177.82	47.3023	-38.8807	-172.067	81.0389	-24.6517	-190.21	78.4908	10.0821	-161.511	47.4015	-26.4275	-163.892	75.5041	-9.5536	-186.97	62.3073	12.86	-150.052	22.4296	-16.6362	-135.691	31.4328	-35.8464	-125.132	37.1425	-57.8281	-193.081	1.14742	13.7893	-206.763	-0.738664	40.1558	-230.385	10.0909	11.858	
68	0.566667	-253.663	36.533	14.1753	-249.317	46.396	-17.6942	-240.93	47.5376	-48.7488	-234.132	51.7658	-75.2956	-217.6	22.5238	-56.502	-202.758	53.9783	-57.2387	-205.543	65.444	-25.5281	-193.92	19.8009	-49.7915	-183.92	53.6214	-43.9393	-199.285	63.0515	-8.20018	-178.29	19.5713	-39.7552	-173.57	51.4543	-31.958	-189.274	49.7707	-0.786556	-164.805	-3.74558	-24.6125	-158.288	0.993632	-50.5791	-153.885	3.36867	-73.7088	-201.52	-13.207	10.3715	-209.653	-13.2219	43.8043	-236.695	-3.07359	15.4801	
69	0.575	-259.538	27.8687	13.6706	-259.04	30.8679	-22.1335	-258.319	28.6366	-55.7399	-254.25	29.6202	-80.034	-243.168	0.580811	-61.0574	-221.521	26.5278	-66.8258	-217.75	43.6682	-38.2075	-215.445	-5.12046	-57.0574	-200.088	25.0113	-56.7692	-209.792	41.5387	-18.8523	-196.623	-9.23781	-47.466	-186.167	20.3517	-47.6854	-201.91	30.0761	-15.5141	-191.811	-34.0137	-31.1845	-189.372	-34.271	-57.4137	-185.578	-36.7851	-79.4622	-220.681	-30.5953	13.5496	-223.936	-22.111	46.4116	-253.718	-12.347	18.1537	
70	0.583333	-271.526	28.7193	8.44913	-268.263	27.9579	-23.4905	-271.122	25.3535	-59.8116	-269.368	21.5903	-84.8158	-266.972	-7.75681	-63.9566	-244.265	10.4606	-76.4444	-227.959	29.2894	-44.2604	-246.328	-18.9556	-59.9308	-219.575	4.95706	-63.6145	-221.461	26.0065	-29.9309	-224.872	-29.8371	-52.697	-208.269	0.773627	-53.3593	-216.521	11.2978	-18.3546	-225.705	-54.803	-35.4907	-222.631	-59.9652	-58.3277	-227.267	-61.8994	-86.6699	-247.78	-41.4249	8.14848	-250.125	-26.7539	40.6503	-275.003	-12.3957	16.8551	
71	0.591667	-274.045	34.6777	3.9512	-269.319	41.1826	-25.6264	-270.68	34.0967	-60.8287	-268.979	32.0787	-88.12	-279.194	-1.53391	-65.0276	-250.407	10.0185	-76.1682	-232.865	22.2976	-46.4748	-267.083	-17.1863	-63.5014	-234.416	0.154235	-67.4387	-227.096	16.7282	-28.9889	-249.757	-29.8257	-58.5253	-225.252	-14.5455	-58.8791	-228.492	0.135304	-20.5476	-259.265	-55.3576	-35.7668	-261.846	-60.6725	-64.3045	-268.943	-65.3724	-89.4274	-276.583	-37.0678	2.26616	-273.412	-27.239	36.0417	-293.257	0.933254	11.6359	
72	0.6	-263.22	44.7142	9.26625	-258.483	48.1562	-24.4166	-260.525	47.88	-60.8843	-260.865	39.4818	-85.27	-286.564	17.8526	-66.1103	-256.843	13.7204	-77.8867	-234.423	17.5748	-50.4905	-278.593	-5.33646	-65.9514	-241.719	-4.66668	-65.0119	-231.235	5.19348	-29.4422	-271.082	-23.9601	-60.0111	-239.837	-16.1374	-57.689	-241.981	-3.12479	-21.7035	-290.871	-38.3663	-40.9276	-294.466	-44.7167	-67.0576	-303.584	-48.2556	-90.6771	-299.395	-21.6872	3.11294	-291.933	-13.6729	37.056	-297.048	17.3095	13.9816	
73	0.608333	-246.679	41.1921	14.6484	-243.752	44.6522	-20.4896	-245.275	47.533	-57.8962	-243.439	45.8576	-81.2615	-280.152	43.3218	-59.6551	-255.606	24.2804	-75.8211	-238.77	8.23409	-45.8831	-286.848	20.641	-61.7224	-258.79	-0.671124	-67.0904	-242.005	-2.69064	-26.6691	-292.309	-0.0446575	-58.1081	-260.835	-12.8292	-56.5239	-257.252	-6.22409	-20.3214	-318.47	-5.23207	-43.7103	-324.816	-8.05707	-67.9773	-329.329	0.225775	-92.9696	-310.824	12.4185	2.48968	-305.173	5.03101	34.5692	-289.526	38.6784	16.7784	
74	0.616667	-236.176	33.7898	17.7463	-225.803	39.9542	-16.6111	-230.488	46.3348	-53.2186	-229.084	47.4955	-76.4731	-264.751	57.5882	-52.626	-254.431	31.6148	-70.4411	-240.052	8.8419	-45.6791	-280.833	41.7551	-58.0188	-265.092	10.9724	-64.0094	-248.707	-1.65106	-30.4131	-294.584	27.7292	-52.7233	-274.637	-2.1495	-55.6822	-266.151	-1.35356	-24.0153	-323.019	29.4129	-36.6365	-325.576	33.7229	-59.1133	-330.722	44.2842	-83.3913	-306.279	34.3171	11.4476	-297.428	28.7596	42.9791	-271.092	51.1447	25.2144	
75	0.625	-220.741	32.9757	21.5035	-213.991	37.5851	-11.8263	-212.01	47.7621	-44.7161	-212.935	50.7911	-69.6575	-246.825	69.3734	-44.8136	-242.682	40.2037	-63.4885	-234.17	14.4764	-42.3302	-264.322	60.5021	-49.3279	-258.891	25.7268	-60.5842	-248.264	5.71497	-24.4412	-284.448	46.7484	-48.3393	-269.822	18.919	-54.6225	-263.938	10.9201	-16.1724	-306.326	56.2061	-28.5275	-313.477	64.493	-52.1536	-312.572	78.8764	-74.5103	-287.254	57.3732	14.5761	-283.969	40.1523	49.4873	-254.836	56.5679	35.1005	
76	0.633333	-202.69	30.1251	25.5143	-192.063	32.6893	-4.92589	-193.203	44.3231	-38.278	-187.433	48.5289	-63.291	-214.087	70.4086	-37.3753	-215.034	41.668	-59.3436	-220.63	15.0117	-37.1461	-238.685	63.1914	-46.2024	-239.412	28.325	-56.4396	-233.576	6.93703	-23.7784	-257.045	55.9921	-44.0207	-254.465	21.9056	-50.1822	-250.474	14.0785	-16.7522	-284.211	68.2177	-27.2491	-285.797	75.947	-49.49	-284.236	91.6238	-73.7622	-266.223	60.1958	21.6426	-270.239	47.8518	49.3818	-233.798	60.0159	36.6188	
77	0.641667	-188.241	17.0054	33.2638	-174.136	19.1681	1.43295	-166.686	25.6737	-33.3307	-163.126	27.7463	-55.8807	-191.897	54.0605	-36.3956	-192.248	23.8106	-54.8811	-200.324	-0.36109	-27.6361	-211.667	49.3492	-43.8483	-212.812	14.9794	-52.987	-216.954	-2.67222	-16.3587	-233.525	40.1953	-44.9675	-232.126	7.80362	-45.1199	-230.605	5.65754	-8.75415	-255.49	58.292	-30.8053	-254.727	64.306	-55.4026	-249.713	71.9451	-75.7378	-246.614	55.9853	19.6855	-250.789	40.3373	50.0724	-214.381	50.9002	37.9275	
